# xmcd
#
# Track frame offsets:
# 150
# 3902
# 28520
# 42970
# 60160
# 77349
# 98420
# 107625
# 139135
# 161794
# 164911
# 183996
# 206634
# 227284
# 230584
# 240826
#
# Disc length: 3388 seconds
#
# Revision: 1
# Processed by: cddbd v1.5.2PL0 Copyright (c) Steve Scherf et al.
# Submitted via: CedeCatalogueitor 2.6.0.6 http://personales.ya.com/cdcatalogueitor
#
DISCID=b70d3a10
DTITLE=Pinkie - Sharon Fussy
DYEAR=1900
DGENRE=
TTITLE0=Outside My Window
TTITLE1=Someone I'll Nevr Be
TTITLE2=Minute Call
TTITLE3=Say After Me
TTITLE4=Long Live Dreams
TTITLE5=Want It To Work This Time
TTITLE6=The Near Distance
TTITLE7=Whois It Now?
TTITLE8=Just Pretend
TTITLE9=Don't Fortet To Sing
TTITLE10=Shelly Anne
TTITLE11=Adelaine
TTITLE12=There's Always Sometimes
TTITLE13=Still Outside My Window
TTITLE14=Secret Sings
TTITLE15=Now Or Never
EXTD=
EXTT0=
EXTT1=
EXTT2=
EXTT3=
EXTT4=
EXTT5=
EXTT6=
EXTT7=
EXTT8=
EXTT9=
EXTT10=
EXTT11=
EXTT12=
EXTT13=
EXTT14=
EXTT15=
PLAYORDER=
